<svg width="210" height="66" viewBox="0 0 210 66" fill="none" xmlns="http://www.w3.org/2000/svg">
<path d="M70.296 26C72.856 26 75.096 26.48 77.016 27.44C78.9573 28.4 80.4613 29.776 81.528 31.568C82.616 33.36 83.16 35.4933 83.16 37.968C83.16 40.5067 82.6693 42.6827 81.688 44.496C80.7067 46.288 79.32 47.6533 77.528 48.592C75.736 49.5307 73.624 50 71.192 50H60.44C60.12 50 59.96 49.84 59.96 49.52V48.56C59.96 48.24 60.12 48.08 60.44 48.08H60.664C61.368 48.08 61.9013 47.8133 62.264 47.28C62.6267 46.7467 62.808 46 62.808 45.04V30.96C62.808 28.9333 62.0293 27.92 60.472 27.92H60.44C60.12 27.92 59.96 27.76 59.96 27.44V26.48C59.96 26.16 60.12 26 60.44 26H70.296ZM67.896 45.2C67.896 46.032 68.0347 46.6933 68.312 47.184C68.5893 47.6747 69.24 47.92 70.264 47.92C72.8027 47.92 74.776 47.1307 76.184 45.552C77.592 43.9733 78.296 41.4453 78.296 37.968C78.296 34.8747 77.5707 32.432 76.12 30.64C74.6693 28.8267 72.4293 27.92 69.4 27.92H67.896V45.2ZM89.725 44.272C90.0877 45.168 90.6637 45.968 91.453 46.672C92.2637 47.376 93.2877 47.728 94.525 47.728C95.2077 47.728 95.9223 47.536 96.669 47.152C97.4157 46.768 98.0663 46.1707 98.621 45.36C98.685 45.2533 98.7703 45.2 98.877 45.2C98.9837 45.2 99.0903 45.232 99.197 45.296C99.325 45.36 99.645 45.5413 100.157 45.84C100.242 45.904 100.285 45.9893 100.285 46.096C100.285 46.2453 100.221 46.4267 100.093 46.64C99.4957 47.7493 98.685 48.656 97.661 49.36C96.637 50.064 95.3037 50.416 93.661 50.416C91.8903 50.416 90.365 50.0213 89.085 49.232C87.805 48.4427 86.813 47.3973 86.109 46.096C85.4263 44.7947 85.085 43.376 85.085 41.84C85.085 40.368 85.2983 39.1093 85.725 38.064C86.173 36.9973 86.7597 36.144 87.485 35.504C88.2103 34.8427 89.021 34.3627 89.917 34.064C90.8343 33.744 91.7623 33.584 92.701 33.584C93.7677 33.584 94.7063 33.7973 95.517 34.224C96.3277 34.6293 97.0103 35.152 97.565 35.792C98.141 36.432 98.5677 37.1147 98.845 37.84C99.1437 38.544 99.293 39.2053 99.293 39.824C99.293 39.9947 99.197 40.1227 99.005 40.208L89.725 44.272ZM94.493 39.696C94.493 38.672 94.2477 37.8293 93.757 37.168C93.2663 36.5067 92.6477 36.176 91.901 36.176C91.0263 36.176 90.333 36.528 89.821 37.232C89.309 37.9147 89.053 38.7787 89.053 39.824C89.053 40.144 89.0637 40.5387 89.085 41.008C89.1277 41.4773 89.213 41.904 89.341 42.288L94.493 39.696ZM118.809 34C119.129 34 119.289 34.16 119.289 34.48V35.44C119.289 35.76 119.129 35.92 118.809 35.92H118.329C117.988 35.92 117.679 36.048 117.401 36.304C117.145 36.56 116.836 37.0933 116.473 37.904L111.065 49.648C110.959 49.8827 110.799 50 110.585 50H108.761C108.527 50 108.356 49.8827 108.249 49.648L102.873 37.936C102.511 37.1253 102.212 36.592 101.977 36.336C101.764 36.0587 101.444 35.92 101.017 35.92H100.953C100.633 35.92 100.473 35.76 100.473 35.44V34.48C100.473 34.16 100.633 34 100.953 34H108.345C108.665 34 108.825 34.16 108.825 34.48V35.44C108.825 35.76 108.665 35.92 108.345 35.92H108.281C107.876 35.92 107.588 36.0053 107.417 36.176C107.268 36.3253 107.193 36.5493 107.193 36.848C107.193 37.1253 107.247 37.4347 107.353 37.776C107.481 38.1173 107.652 38.512 107.865 38.96L110.809 45.2L113.497 38.96C113.711 38.4693 113.892 38.0213 114.041 37.616C114.191 37.2107 114.265 36.8693 114.265 36.592C114.265 36.144 114.031 35.92 113.561 35.92H112.921C112.601 35.92 112.441 35.76 112.441 35.44V34.48C112.441 34.16 112.601 34 112.921 34H118.809ZM139.277 33.264C139.213 33.2853 139.149 33.3173 139.085 33.36C139.021 33.3813 138.957 33.392 138.893 33.392C138.722 33.392 138.541 33.264 138.349 33.008C136.983 31.3013 135.639 30.0747 134.317 29.328C132.994 28.5813 131.629 28.208 130.221 28.208C129.367 28.208 128.631 28.432 128.013 28.88C127.415 29.328 127.117 30.032 127.117 30.992C127.117 31.7813 127.362 32.432 127.853 32.944C128.343 33.456 128.973 33.8827 129.741 34.224C130.53 34.544 131.33 34.8213 132.141 35.056C133.357 35.3973 134.551 35.7813 135.725 36.208C136.919 36.6347 137.997 37.1467 138.957 37.744C139.917 38.32 140.685 39.0347 141.261 39.888C141.837 40.72 142.125 41.7333 142.125 42.928C142.125 44.3787 141.751 45.6693 141.005 46.8C140.279 47.9307 139.223 48.816 137.837 49.456C136.45 50.096 134.775 50.416 132.813 50.416C131.853 50.416 130.946 50.288 130.093 50.032C129.261 49.7973 128.45 49.488 127.661 49.104C127.49 49.0187 127.33 48.976 127.181 48.976C126.989 48.976 126.893 49.0827 126.893 49.296C126.893 49.36 126.914 49.4773 126.957 49.648C127.021 49.7973 127.053 49.9253 127.053 50.032C127.053 50.2667 126.871 50.384 126.509 50.384H124.909C124.525 50.384 124.258 50.2347 124.109 49.936L120.237 42.672C120.151 42.5013 120.109 42.3733 120.109 42.288C120.109 42.0533 120.226 41.872 120.461 41.744L121.869 40.944C121.933 40.9013 121.997 40.8693 122.061 40.848C122.125 40.8267 122.189 40.816 122.253 40.816C122.466 40.816 122.647 40.944 122.797 41.2C124.247 43.3973 125.847 45.0293 127.597 46.096C129.367 47.1627 131.17 47.696 133.005 47.696C134.391 47.696 135.458 47.3867 136.205 46.768C136.951 46.128 137.325 45.328 137.325 44.368C137.325 43.4293 137.09 42.6933 136.621 42.16C136.151 41.6267 135.426 41.1787 134.445 40.816C133.463 40.4533 132.205 40.048 130.669 39.6C129.623 39.3013 128.589 38.9387 127.565 38.512C126.541 38.0853 125.613 37.5733 124.781 36.976C123.949 36.3573 123.277 35.632 122.765 34.8C122.274 33.9467 122.029 32.944 122.029 31.792C122.029 30.384 122.381 29.2213 123.085 28.304C123.81 27.3867 124.781 26.7147 125.997 26.288C127.213 25.84 128.589 25.616 130.125 25.616C131.319 25.616 132.333 25.7653 133.165 26.064C133.997 26.3627 134.637 26.64 135.085 26.896C135.447 27.1093 135.693 27.216 135.821 27.216C135.927 27.216 135.981 27.152 135.981 27.024C135.981 26.9173 135.949 26.768 135.885 26.576C135.842 26.384 135.821 26.1813 135.821 25.968C135.821 25.648 136.013 25.488 136.397 25.488H137.549C137.933 25.488 138.199 25.6693 138.349 26.032L140.589 31.76C140.631 31.8453 140.663 31.9307 140.685 32.016C140.706 32.08 140.717 32.144 140.717 32.208C140.717 32.4 140.599 32.56 140.365 32.688L139.277 33.264ZM154.673 47.696C154.737 47.7813 154.769 47.8773 154.769 47.984C154.769 48.112 154.683 48.2293 154.513 48.336L153.553 48.944C152.977 49.3067 152.283 49.648 151.473 49.968C150.662 50.2667 149.851 50.416 149.041 50.416C148.401 50.416 147.793 50.2667 147.217 49.968C146.662 49.6693 146.214 49.168 145.873 48.464C145.531 47.7387 145.361 46.7467 145.361 45.488V39.568C145.361 38.992 145.329 38.4267 145.265 37.872C145.201 37.296 144.998 36.8267 144.657 36.464C144.337 36.1013 143.793 35.92 143.025 35.92C142.705 35.92 142.545 35.76 142.545 35.44V34.48C142.545 34.16 142.705 34 143.025 34H145.361V31.856C145.361 31.5787 145.457 31.3867 145.649 31.28C146.118 31.024 146.737 30.672 147.505 30.224C148.273 29.7547 148.955 29.2213 149.553 28.624C149.595 28.5813 149.649 28.56 149.713 28.56H149.777C149.819 28.56 149.841 28.592 149.841 28.656V34H154.129C154.449 34 154.609 34.16 154.609 34.48V35.856C154.609 36.176 154.449 36.336 154.129 36.336H149.841V45.488C149.841 46.32 149.969 46.896 150.225 47.216C150.481 47.5147 150.801 47.664 151.185 47.664C151.547 47.664 151.931 47.568 152.337 47.376C152.742 47.1627 153.115 46.9493 153.457 46.736C153.606 46.6507 153.723 46.608 153.809 46.608C153.937 46.608 154.054 46.6933 154.161 46.864L154.673 47.696ZM171.9 44.08C171.9 44.848 172.017 45.5413 172.252 46.16C172.486 46.7573 172.998 47.1093 173.788 47.216C174.044 47.2373 174.172 47.376 174.172 47.632V48.688C174.172 48.9867 174.012 49.136 173.692 49.136C172.646 49.136 171.772 49.2 171.068 49.328C170.385 49.4347 169.788 49.584 169.276 49.776C168.785 49.9467 168.294 50.1387 167.804 50.352C167.718 50.3947 167.644 50.416 167.58 50.416H167.484C167.441 50.416 167.42 50.3733 167.42 50.288C167.42 50.2027 167.441 50 167.484 49.68C167.526 49.3387 167.569 48.9653 167.612 48.56C167.676 48.1333 167.729 47.7707 167.772 47.472C167.665 47.7493 167.43 48.1227 167.068 48.592C166.726 49.0613 166.214 49.488 165.532 49.872C164.87 50.2347 163.996 50.416 162.908 50.416C162.182 50.416 161.404 50.2667 160.572 49.968C159.761 49.6693 158.993 49.1893 158.268 48.528C157.542 47.8667 156.945 47.0027 156.476 45.936C156.028 44.848 155.804 43.5253 155.804 41.968C155.804 39.984 156.156 38.384 156.86 37.168C157.585 35.9307 158.513 35.024 159.644 34.448C160.796 33.872 162.012 33.584 163.292 33.584C164.337 33.584 165.297 33.744 166.172 34.064C167.046 34.384 167.814 34.8427 168.476 35.44C169.03 35.2053 169.5 34.992 169.884 34.8C170.289 34.5867 170.63 34.3733 170.908 34.16C171.014 34.0747 171.121 33.9893 171.228 33.904C171.356 33.8187 171.494 33.7333 171.644 33.648C171.708 33.6053 171.761 33.584 171.804 33.584H171.836C171.878 33.584 171.9 33.6053 171.9 33.648V44.08ZM167.42 39.056C167.356 38.6293 167.196 38.16 166.94 37.648C166.705 37.1147 166.342 36.6667 165.852 36.304C165.361 35.92 164.7 35.728 163.868 35.728C162.844 35.728 162.044 35.984 161.468 36.496C160.892 36.9867 160.486 37.6267 160.252 38.416C160.038 39.2053 159.932 40.048 159.932 40.944C159.932 42.992 160.337 44.6133 161.148 45.808C161.98 47.0027 163.046 47.6 164.348 47.6C165.116 47.6 165.713 47.44 166.14 47.12C166.588 46.7787 166.908 46.4373 167.1 46.096C167.292 45.7547 167.398 45.552 167.42 45.488V39.056ZM189.01 45.68C189.181 45.808 189.266 45.9467 189.266 46.096C189.266 46.1387 189.245 46.224 189.202 46.352C188.584 47.7173 187.666 48.7413 186.45 49.424C185.256 50.0853 183.944 50.416 182.514 50.416C181.32 50.416 180.232 50.16 179.25 49.648C178.269 49.1147 177.437 48.4107 176.754 47.536C176.072 46.6613 175.57 45.68 175.25 44.592C174.93 43.504 174.813 42.384 174.898 41.232C175.048 39.4613 175.538 38.0107 176.37 36.88C177.202 35.7493 178.205 34.9173 179.378 34.384C180.573 33.8507 181.768 33.584 182.962 33.584C184.37 33.584 185.512 33.7973 186.386 34.224C187.261 34.6507 187.933 35.2053 188.402 35.888C188.872 36.5707 189.192 37.2853 189.362 38.032C189.384 38.1173 189.394 38.192 189.394 38.256C189.394 38.4267 189.266 38.544 189.01 38.608L185.33 39.568C185.202 39.6107 185.106 39.632 185.042 39.632C184.893 39.632 184.818 39.5573 184.818 39.408C184.818 39.3227 184.818 39.2373 184.818 39.152C184.84 39.0667 184.85 38.9493 184.85 38.8C184.85 38.1173 184.637 37.5093 184.21 36.976C183.784 36.4427 183.122 36.176 182.226 36.176C181.416 36.176 180.776 36.432 180.306 36.944C179.837 37.456 179.496 38.1173 179.282 38.928C179.09 39.7173 178.994 40.5493 178.994 41.424C178.994 42.4693 179.133 43.4613 179.41 44.4C179.688 45.3387 180.136 46.1067 180.754 46.704C181.394 47.28 182.258 47.568 183.346 47.568C184.2 47.568 184.989 47.3653 185.714 46.96C186.44 46.5333 187.037 45.9573 187.506 45.232C187.592 45.0827 187.72 45.008 187.89 45.008C187.997 45.008 188.093 45.04 188.178 45.104L189.01 45.68ZM209.083 48.08C209.361 48.08 209.499 48.24 209.499 48.56V49.52C209.499 49.84 209.339 50 209.019 50H201.179C200.859 50 200.699 49.84 200.699 49.52V48.528C200.699 48.2293 200.838 48.08 201.115 48.08H201.595C201.809 48.08 202.001 48.0373 202.171 47.952C202.363 47.8667 202.459 47.7493 202.459 47.6C202.459 47.4507 202.374 47.2907 202.203 47.12L197.979 42.544L197.307 43.152V45.04C197.307 45.872 197.339 46.512 197.403 46.96C197.489 47.3867 197.649 47.6853 197.883 47.856C198.139 48.0053 198.523 48.08 199.035 48.08C199.355 48.08 199.515 48.24 199.515 48.56V49.52C199.515 49.84 199.355 50 199.035 50H190.491C190.171 50 190.011 49.84 190.011 49.52V48.56C190.011 48.24 190.171 48.08 190.491 48.08C191.281 48.08 191.867 47.792 192.251 47.216C192.635 46.6187 192.827 45.8933 192.827 45.04V33.04C192.827 32.464 192.785 31.9093 192.699 31.376C192.635 30.8427 192.465 30.3947 192.187 30.032C191.931 29.648 191.505 29.424 190.907 29.36C190.673 29.3387 190.555 29.2 190.555 28.944V27.856C190.555 27.728 190.587 27.6427 190.651 27.6C190.737 27.536 190.854 27.4827 191.003 27.44C192.71 26.8853 194.033 26.3307 194.971 25.776C195.91 25.2213 196.593 24.784 197.019 24.464C197.083 24.4213 197.137 24.4 197.179 24.4H197.243C197.286 24.4 197.307 24.4213 197.307 24.464V40.336L201.211 36.784C201.382 36.6133 201.467 36.464 201.467 36.336C201.467 36.0587 201.254 35.92 200.827 35.92H199.867C199.59 35.92 199.451 35.76 199.451 35.44V34.48C199.451 34.16 199.611 34 199.931 34H207.035C207.355 34 207.515 34.16 207.515 34.48V35.44C207.515 35.76 207.377 35.92 207.099 35.92H206.715C206.097 35.92 205.542 36.08 205.051 36.4C204.582 36.72 203.931 37.2533 203.099 38L200.635 40.208L207.483 47.088C207.846 47.4507 208.134 47.7067 208.347 47.856C208.561 48.0053 208.774 48.08 208.987 48.08H209.083Z" fill="#1C1A16"/>
<path d="M16.6784 34.3504C15.2988 33.5901 15.2988 31.6074 16.6784 30.8471L29.3586 23.8589C30.6916 23.1243 32.324 24.0886 32.324 25.6105V39.5869C32.324 41.1089 30.6916 42.0731 29.3587 41.3386L16.6784 34.3504Z" fill="#D9D9D9"/>
<path d="M21.8418 34.3533C20.4548 33.5946 20.4548 31.6026 21.8418 30.8439L31.9311 25.3254C33.2639 24.5964 34.8909 25.561 34.8909 27.0801V38.1171C34.8909 39.6362 33.2639 40.6007 31.9311 39.8717L21.8418 34.3533Z" fill="#171717"/>
<path d="M16.6784 34.3504C15.2988 33.5901 15.2988 31.6074 16.6784 30.8471L29.3586 23.8589C30.6916 23.1243 32.324 24.0886 32.324 25.6105V39.5869C32.324 41.1089 30.6916 42.0731 29.3587 41.3386L16.6784 34.3504Z" fill="#D9D9D9"/>
<path d="M21.8418 34.3533C20.4548 33.5946 20.4548 31.6026 21.8418 30.8439L31.9311 25.3254C33.2639 24.5964 34.8909 25.561 34.8909 27.0801V38.1171C34.8909 39.6362 33.2639 40.6007 31.9311 39.8717L21.8418 34.3533Z" fill="#171717"/>
<path d="M13.75 57.75V13.75C13.75 12.2375 14.2885 10.9427 15.3656 9.86563C16.4427 8.78854 17.7375 8.25 19.25 8.25H46.75C48.2625 8.25 49.5573 8.78854 50.6344 9.86563C51.7115 10.9427 52.25 12.2375 52.25 13.75V57.75L33 49.5L13.75 57.75ZM19.25 49.3625L33 43.45L46.75 49.3625V13.75H19.25V49.3625Z" fill="#E55C3C"/>
<g filter="url(#filter0_d_110_35)">
<path d="M50.6302 30.2302C52.0098 29.47 52.0098 27.4873 50.6302 26.727L37.9499 19.7388C36.617 19.0042 34.9846 19.9685 34.9846 21.4904V35.4668C34.9846 36.9888 36.617 37.953 37.9499 37.2184L50.6302 30.2302Z" fill="#D9D9D9"/>
<path d="M45.4668 30.2336C46.8538 29.475 46.8538 27.4829 45.4668 26.7243L35.3775 21.2058C34.0447 20.4768 32.4177 21.4413 32.4177 22.9605V33.9974C32.4177 35.5166 34.0447 36.4811 35.3775 35.7521L45.4668 30.2336Z" fill="#171717"/>
<path d="M50.6302 30.2302C52.0098 29.47 52.0098 27.4873 50.6302 26.727L37.9499 19.7388C36.617 19.0042 34.9846 19.9685 34.9846 21.4904V35.4668C34.9846 36.9888 36.617 37.953 37.9499 37.2184L50.6302 30.2302Z" fill="#D9D9D9"/>
<path d="M45.4668 30.2336C46.8538 29.475 46.8538 27.4829 45.4668 26.7243L35.3775 21.2058C34.0447 20.4768 32.4177 21.4413 32.4177 22.9605V33.9974C32.4177 35.5166 34.0447 36.4811 35.3775 35.7521L45.4668 30.2336Z" fill="#171717"/>
</g>
<path d="M33.8994 24L35.6819 24.4372L32.0198 39.366C31.8882 39.9024 31.3467 40.2305 30.8104 40.099L29.9991 39.8999L33.8994 24Z" fill="#D9D9D9"/>
<g filter="url(#filter1_d_110_35)">
<path d="M17.1507 30.0471C17.7028 30.0599 18.14 30.5179 18.1271 31.07L18.0226 35.5664L14.9996 35.4961L15.1274 30L17.1507 30.0471Z" fill="#E55C3C"/>
</g>
<defs>
<filter id="filter0_d_110_35" x="29.118" y="17.1878" width="29.8471" height="28.5819" filterUnits="userSpaceOnUse" color-interpolation-filters="sRGB">
<feFlood flood-opacity="0" result="BackgroundImageFix"/>
<feColorMatrix in="SourceAlpha" type="matrix" values="0 0 0 0 0 0 0 0 0 0 0 0 0 0 0 0 0 0 127 0" result="hardAlpha"/>
<feOffset dx="2" dy="3"/>
<feGaussianBlur stdDeviation="2.65"/>
<feComposite in2="hardAlpha" operator="out"/>
<feColorMatrix type="matrix" values="0 0 0 0 0 0 0 0 0 0 0 0 0 0 0 0 0 0 1 0"/>
<feBlend mode="normal" in2="BackgroundImageFix" result="effect1_dropShadow_110_35"/>
<feBlend mode="normal" in="SourceGraphic" in2="effect1_dropShadow_110_35" result="shape"/>
</filter>
<filter id="filter1_d_110_35" x="14.2" y="27.2" width="8.72695" height="11.1664" filterUnits="userSpaceOnUse" color-interpolation-filters="sRGB">
<feFlood flood-opacity="0" result="BackgroundImageFix"/>
<feColorMatrix in="SourceAlpha" type="matrix" values="0 0 0 0 0 0 0 0 0 0 0 0 0 0 0 0 0 0 127 0" result="hardAlpha"/>
<feOffset dx="2"/>
<feGaussianBlur stdDeviation="1.4"/>
<feComposite in2="hardAlpha" operator="out"/>
<feColorMatrix type="matrix" values="0 0 0 0 0.898039 0 0 0 0 0.360784 0 0 0 0 0.235294 0 0 0 1 0"/>
<feBlend mode="normal" in2="BackgroundImageFix" result="effect1_dropShadow_110_35"/>
<feBlend mode="normal" in="SourceGraphic" in2="effect1_dropShadow_110_35" result="shape"/>
</filter>
</defs>
</svg>
